<svg width="512" height="512" viewBox="0 0 512 512" fill="none" xmlns="http://www.w3.org/2000/svg">
  <!-- Background circle -->
  <rect width="512" height="512" rx="96" fill="#1A1A2E"/>

  <!-- Gift box body -->
  <rect x="136" y="256" width="240" height="160" rx="16" fill="#FF6B8A"/>

  <!-- Gift box lid -->
  <rect x="120" y="216" width="272" height="56" rx="12" fill="#FF6B8A"/>

  <!-- Vertical ribbon -->
  <rect x="240" y="216" width="32" height="200" fill="#1A1A2E" opacity="0.2"/>

  <!-- Horizontal ribbon -->
  <rect x="120" y="232" width="272" height="24" fill="#1A1A2E" opacity="0.2"/>

  <!-- Bow - left loop -->
  <ellipse cx="230" cy="196" rx="40" ry="32" fill="#FF6B8A" stroke="white" stroke-width="4"/>

  <!-- Bow - right loop -->
  <ellipse cx="282" cy="196" rx="40" ry="32" fill="#FF6B8A" stroke="white" stroke-width="4"/>

  <!-- Bow center -->
  <circle cx="256" cy="200" r="12" fill="#FF6B8A"/>

  <!-- Swipe arrow right -->
  <path d="M340 300 L380 320 L340 340" stroke="white" stroke-width="8" stroke-linecap="round" stroke-linejoin="round" fill="none"/>

  <!-- Swipe arrow left -->
  <path d="M172 300 L132 320 L172 340" stroke="white" stroke-width="8" stroke-linecap="round" stroke-linejoin="round" fill="none" opacity="0.3"/>

  <!-- Heart on gift -->
  <path d="M256 316 C256 308 244 296 232 296 C218 296 212 308 212 316 C212 332 256 356 256 356 C256 356 300 332 300 316 C300 308 294 296 280 296 C268 296 256 308 256 316Z" fill="white" opacity="0.3"/>
</svg>
